PathFileType	4	(X/Y/Z)	C:/Users/beibeiliu/ov580/test_trc/capture2\sequence.15_training_dense_right.trc
DataRate	CameraRate	NumFrames	NumMarkers	Units	OrigDataRate	OrigDataStartFrame	OrigNumFrames
120	120	10	19	mm	120	276	367
Frame#	Time	ThumbCMC			ThumbMCP			ThumbIP			ThumbTip			IndexMCP			IndexPIP			IndexTip			MiddleMCP			MiddlePIP			MiddleTip			RingMCP			RingPIP			RingTip			PinkyMCP			PinkyPIP			PinkyTip			BackHand1			BackHand2			BackHand3	
		X0	Y0	Z0	X1	Y1	Z1	X2	Y2	Z2	X3	Y3	Z3	X4	Y4	Z4	X5	Y5	Z5	X6	Y6	Z6	X7	Y7	Z7	X8	Y8	Z8	X9	Y9	Z9	X10	Y10	Z10	X11	Y11	Z11	X12	Y12	Z12	X13	Y13	Z13	X14	Y14	Z14	X15	Y15	Z15	X16	Y16	Z16	X17	Y17	Z17	X18	Y18	Z18	
275	2.29167	167.691	38.5585	-28.3181	154.042	21.7937	-50.1401	145.626	17.0864	-73.2935	132.231	10.4559	-90.5205	175.687	40.1425	-97.0819	180.046	7.32787	-94.7463	182.568	12.2162	-59.4882	198.95	37.5435	-99.5943	198.828	6.526	-88.2471	196.141	13.0907	-55.1162	216.763	40.0771	-96.7915	216.349	9.98999	-84.959	205.872	18.9305	-55.96	239.064	57.4088	-94.6921	240.37	50.7244	-114.531	249.608	49.7898	-135.092	217.815	73.7534	-55.4632	216.21	73.7966	-20.9169	188.678	69.1803	-35.9486	
276	2.3	164.956	35.7495	-23.3948	151.023	17.0336	-44.2701	137.508	8.35192	-65.6881	127.754	1.87512	-85.192	171.098	33.1004	-94.7456	179.578	2.04437	-91.4143	179.401	7.73745	-55.4593	191.368	32.1114	-95.8554	196.263	-0.150284	-83.8934	194.768	8.40123	-51.0081	210.545	27.8995	-96.0023	209.107	2.74704	-78.5811	203.89	14.5882	-51.5017	231.806	50.7478	-93.34	237.208	41.8994	-113.542	247.783	39.3756	-134.468	211.563	68.6777	-55.1469	216.827	70.1287	-20.1926	184.94	66.3414	-37.415	
277	2.30833	162.291	33.9146	-26.8346	150.375	15.3256	-43.4726	135.102	3.69421	-64.2677	128.599	-4.38421	-78.2117	169.091	22.9318	-93.4102	172.193	-5.71913	-86.1041	178.484	5.65704	-51.377	190.432	23.4701	-94.0349	192.037	-6.29249	-81.9076	190.466	8.55932	-44.3527	206.04	19.877	-91.983	208.151	-3.86476	-75.6252	196.173	13.3683	-46.0666	231.699	41.4143	-89.1445	239.807	30.8495	-111.046	243.45	23.9194	-132.763	210.599	64.0967	-54.1855	211.91	68.8436	-20.3783	177.685	64.06	-36.6134	
278	2.31667	155.396	30.9352	-22.8565	145.899	11.6546	-41.3008	131.308	-0.614213	-59.6028	121.183	-10.0144	-76.7178	162.59	15.6568	-90.0327	168.134	-13.157	-78.9135	174.639	-2.05029	-49.9458	188.719	13.4335	-90.5504	185.517	-13.9696	-77.1845	182.454	-0.373267	-41.9989	201.665	10.7622	-88.2118	201.063	-11.678	-69.0821	194.979	7.68634	-42.3039	229.093	32.039	-86.0059	237.383	20.2857	-103.826	244.005	10.0045	-129.679	208.034	57.1332	-53.7236	212.515	65.3358	-20.4112	175.381	59.2919	-36.3446	
279	2.325	153.017	30.9027	-19.1343	139.786	9.76059	-34.5715	123.884	-1.91442	-52.2336	116.96	-11.0802	-68.9104	161.865	9.27557	-86.775	163.651	-18.1541	-73.365	165.165	-7.5254	-44.1276	182.97	6.4035	-86.4498	180.198	-21.3812	-67.9321	177.334	-4.73124	-37.7795	197.329	3.24002	-83.7367	194.459	-19.4	-62.7667	190.457	-0.0692497	-36.6822	228.744	19.5719	-82.2272	233.647	5.66002	-99.614	238.526	-4.21831	-123.243	209.18	52.0147	-49.0349	206.816	60.2113	-21.8081	176.014	57.6315	-35.7737	
280	2.33333	149.368	29.9306	-15.2678	137.513	9.69382	-30.3575	122.297	-3.53257	-53.4826	109.671	-13.5636	-67.4755	159.059	5.30133	-82.925	155.739	-23.423	-67.8646	159.25	-6.48782	-39.6126	177.942	-4.31332	-83.5403	175.344	-25.8933	-64.3629	172.46	-3.30021	-32.5099	191.559	-6.08385	-78.8463	186.347	-25.3283	-59.419	185.736	-2.08683	-31.6263	222.393	11.2222	-78.1619	229.584	-6.24061	-95.8204	233.187	-19.4865	-117.109	204.718	44.3686	-51.8322	207.717	54.3598	-21.2738	173.728	51.5443	-36.7647	
281	2.34167	147.96	29.6617	-15.8107	133.468	7.93469	-31.1086	120.713	-3.90873	-50.2818	105.609	-14.0268	-63.1376	154.915	1.74457	-79.4811	149.147	-26.2569	-65.2105	157.543	-11.1963	-37.5028	175.486	-6.41681	-79.4964	164.654	-30.0696	-56.2942	168.782	-5.7103	-29.6008	193.1	-9.06558	-73.9389	181.244	-29.7191	-51.8092	178.185	-3.42204	-29.796	219.065	2.38553	-74.9269	223.718	-14.8621	-90.4238	233.333	-31.9196	-111.015	202.794	37.8292	-48.3515	204.864	49.7097	-19.8186	172.292	49.7246	-34.6982	
282	2.35	144.812	29.4687	-14.7959	127.905	8.71487	-27.0396	115.601	-3.00718	-43.7776	103.993	-13.349	-59.327	147.331	-4.41086	-77.0476	147.818	-29.2799	-61.5455	154.47	-10.2168	-34.3261	171.66	-14.4056	-75.4788	161.559	-32.5437	-51.012	162.45	-4.88303	-27.0903	185.517	-18.6247	-70.6076	176.437	-32.7581	-47.1115	173.236	-7.25329	-26.7095	216.158	-4.31109	-71.2672	220.004	-24.6407	-87.9911	224.007	-39.6771	-106.133	204.258	34.9338	-47.0557	203.567	47.6202	-16.413	170.955	48.1861	-35.3862	
283	2.35833	144.531	29.2836	-13.6105	127.053	8.29021	-27.124	113.275	-3.59306	-43.178	101.084	-13.2611	-59.0837	145.613	-3.33185	-74.6289	142.156	-30.5976	-55.3008	147.428	-9.43713	-30.1573	166.425	-13.9843	-72.2671	157.773	-34.5033	-48.4163	160.065	-6.94803	-24.4792	185.496	-21.6821	-66.8368	171.81	-36.142	-41.8274	171.822	-10.3934	-22.2374	214.604	-11.8722	-66.4002	217.552	-31.7696	-79.6178	218.236	-48.6287	-96.0784	201.313	28.7641	-45.5178	207.089	42.5224	-16.7541	171.839	46.2042	-33.301	
284	2.36667	145.038	30.0836	-11.9998	123.671	10.2776	-24.3397	108.44	0.724043	-37.5801	91.9766	-11.4988	-55.7029	141.484	-4.60652	-71.2942	134.118	-31.0196	-53.1798	141.603	-8.65582	-27.4488	161.197	-18.0893	-69.3503	149.605	-35.6836	-43.6153	152.823	-5.86918	-21.5626	178.052	-26.2368	-64.6066	167.88	-39.0443	-39.9372	166.251	-8.8158	-20.0649	206.319	-18.9409	-67.496	206.613	-39.2412	-79.4501	210.778	-56.7721	-90.6035	201.359	23.4443	-45.0837	205.388	41.7051	-16.1178	175.206	44.1827	-32.5512	
